<svg width="588" height="561" viewBox="0 0 588 561" fill="none" xmlns="http://www.w3.org/2000/svg">
<g clip-path="url(#clip0_162_50)">
<path d="M320.284 531.612C468.139 531.612 588 518.22 588 501.699C588 485.179 468.139 471.787 320.284 471.787C172.428 471.787 52.5671 485.179 52.5671 501.699C52.5671 518.22 172.428 531.612 320.284 531.612Z" fill="#3F3D56"/>
<path d="M453.056 468.601L457.673 482.827C457.673 482.827 479.91 505.8 471.867 512.027C463.825 518.254 445.78 485.428 445.78 485.428L442.455 469.368L453.056 468.601Z" fill="#FFB8B8"/>
<path d="M410.395 358.494L417.125 356.25C417.125 356.25 427.595 359.241 429.09 369.711C430.586 380.18 441.803 433.275 441.803 433.275C441.803 433.275 446.29 435.518 443.299 439.257C440.307 442.996 458.255 476.648 458.255 476.648L444.047 483.378C444.047 483.378 415.63 453.466 415.63 450.474C415.63 447.483 416.377 444.492 416.377 441.501C416.377 438.509 415.63 438.509 416.377 436.266C416.877 434.311 417.128 432.301 417.125 430.283L411.891 418.318L410.395 358.494Z" fill="#D85D2C"/>
<path d="M67.6155 409.791C104.958 409.791 135.231 348.023 135.231 271.828C135.231 195.633 104.958 133.865 67.6155 133.865C30.2725 133.865 0 195.633 0 271.828C0 348.023 30.2725 409.791 67.6155 409.791Z" fill="#D85D2C"/>
<path d="M66.9946 273.259C70.3675 213.205 77.1631 172.64 77.2314 172.237L75.757 171.987C75.6887 172.39 68.881 213.02 65.5027 273.152C62.3851 328.65 61.6329 412.594 75.7566 497.335L77.2318 497.09C63.1322 412.492 63.8825 328.675 66.9946 273.259Z" fill="#3F3D56"/>
<path d="M128.048 243.849L66.913 276.57L67.6188 277.889L128.754 245.168L128.048 243.849Z" fill="#3F3D56"/>
<path d="M3.08015 260.249L2.37469 261.568L63.5185 294.273L64.2239 292.954L3.08015 260.249Z" fill="#3F3D56"/>
<path d="M227.757 377.582C278.858 377.582 320.284 293.058 320.284 188.791C320.284 84.5247 278.858 0 227.757 0C176.656 0 135.231 84.5247 135.231 188.791C135.231 293.058 176.656 377.582 227.757 377.582Z" fill="#E6E6E6"/>
<path d="M226.633 190.725C231.25 108.532 240.551 53.0144 240.644 52.463L239.17 52.2133C239.076 52.765 229.763 108.348 225.142 190.618C220.876 266.549 219.847 381.398 239.17 497.335L240.645 497.09C221.346 381.296 222.373 266.575 226.633 190.725Z" fill="#3F3D56"/>
<path d="M310.585 150.747L226.926 195.524L227.632 196.843L311.29 152.066L310.585 150.747Z" fill="#3F3D56"/>
<path d="M139.316 173.189L138.611 174.508L222.281 219.262L222.987 217.943L139.316 173.189Z" fill="#3F3D56"/>
<path d="M150.678 451.15C169.77 451.15 185.248 419.569 185.248 380.612C185.248 341.656 169.77 310.075 150.678 310.075C131.585 310.075 116.107 341.656 116.107 380.612C116.107 419.569 131.585 451.15 150.678 451.15Z" fill="#E6E6E6"/>
<path d="M150.647 383.651L150.852 384.034L182.109 367.304L181.403 365.985L150.712 382.412C152.411 351.152 155.884 330.168 155.954 329.755L154.48 329.505C154.403 329.956 150.276 354.876 148.811 390.934L117.857 374.366L117.151 375.685L148.408 392.415L148.781 391.717C147.609 421.478 148.266 458.691 154.479 495.97L155.955 495.724C149.18 455.079 149.031 414.51 150.647 383.651Z" fill="#3F3D56"/>
<path d="M419.546 287.507C407.525 267.02 383.744 266.065 383.744 266.065C383.744 266.065 360.57 263.076 345.704 294.278C331.848 323.36 312.725 351.439 342.625 358.247L348.026 341.292L351.371 359.51C355.628 359.819 359.899 359.892 364.164 359.73C396.186 358.687 426.681 360.035 425.699 348.445C424.394 333.038 431.112 307.219 419.546 287.507Z" fill="#2F2E41"/>
<path d="M335.76 451.603C335.424 453.744 334.937 455.859 334.302 457.932C333.587 459.96 332.483 461.835 331.829 463.884C329.745 470.416 332.634 477.698 337.248 482.739C341.238 487.086 346.405 490.181 352.12 491.647C356.283 492.703 360.611 492.854 364.901 493.001C376.78 493.408 388.964 493.771 400.22 489.92C403.778 488.673 407.213 487.099 410.481 485.219C411.515 484.721 412.425 483.999 413.143 483.104C414.002 481.871 414.112 480.272 414.104 478.766C414.079 473.687 413.058 468.633 413.301 463.56C413.435 460.75 413.956 457.942 413.7 455.14C413.354 451.97 412.038 448.983 409.932 446.588C407.826 444.193 405.031 442.507 401.931 441.76C398.738 441.069 395.426 441.446 392.175 441.761C383.737 442.579 375.263 442.961 366.786 442.906C358.124 442.85 349.517 441.517 340.899 441.377C338.35 441.336 338.401 442.129 337.59 444.617C336.843 446.907 336.231 449.24 335.76 451.603Z" fill="#2F2E41"/>
<path d="M301.891 447.475C299.563 446.884 297.163 446.627 294.762 446.71C292.238 446.869 289.777 447.558 287.538 448.733C285.298 449.907 283.332 451.54 281.766 453.526C280.215 455.541 279.102 457.856 278.495 460.325C277.889 462.794 277.803 465.363 278.243 467.867C278.824 470.579 279.775 473.199 281.068 475.653C282.959 479.522 285.226 483.384 288.726 485.864C290.833 487.226 293.104 488.316 295.485 489.108L313.918 496.113C316.63 497.143 319.342 498.174 322.081 499.129C335.832 503.925 350.179 506.802 364.716 507.679C369.142 507.944 373.636 508.018 377.954 507.002C379.009 506.862 379.975 506.336 380.665 505.525C381.016 504.906 381.223 504.216 381.27 503.507L382.405 495.497C382.659 494.381 382.625 493.22 382.308 492.12C381.789 490.774 380.486 489.928 379.244 489.208C367.125 482.187 352.975 478.314 342.774 468.678C340.373 466.41 338.363 462.814 335.446 461.273C332.137 459.526 328.241 458.529 324.821 456.918C317.344 453.398 309.994 449.353 301.891 447.475Z" fill="#2F2E41"/>
<path opacity="0.1" d="M320.294 458.273C326.81 460.332 354.319 474.599 359.034 479.58C358.402 479.81 336.958 467.689 336.315 467.494C330.466 465.723 324.584 463.941 319.03 461.35C317.913 460.829 311.771 458.379 312.049 456.957C312.363 455.352 319.138 457.907 320.294 458.273Z" fill="black"/>
<path d="M401.58 511.833C401.95 511.86 402.318 511.751 402.613 511.526C402.743 511.357 402.838 511.165 402.894 510.959C402.949 510.753 402.964 510.538 402.936 510.327L402.906 499.415C399.795 497.92 396.315 497.441 392.899 496.98L376.962 494.832C377.328 494.881 374.471 501.755 374.909 502.673C375.681 504.291 381.584 505.724 383.249 506.488C389.04 509.143 395.058 512.061 401.58 511.833Z" fill="#FFB8B8"/>
<path d="M351.579 499.377C348.57 499.861 345.211 500.288 343.263 502.651C340.791 505.647 341.843 510.113 343.022 513.825C343.197 514.575 343.548 515.272 344.047 515.858C344.852 516.659 346.085 516.776 347.212 516.848C349.957 517.023 352.877 517.16 355.275 515.803C356.361 515.079 357.407 514.295 358.407 513.455C360.172 512.269 362.116 511.373 364.165 510.799C367.925 509.606 371.798 508.801 375.723 508.397C377.27 508.326 378.8 508.053 380.276 507.587C381.016 507.345 381.69 506.936 382.247 506.392C382.803 505.847 383.226 505.182 383.483 504.447C384.039 502.464 382.896 500.442 381.8 498.703C380.435 496.537 378.989 494.256 376.953 492.661C373.984 490.334 372.515 492.12 369.524 493.609C363.867 496.426 357.817 498.371 351.579 499.377Z" fill="#FFB8B8"/>
<path d="M343.715 502.111L324.609 496.415C322.319 495.611 319.924 495.143 317.499 495.026C315.076 495.027 312.541 495.829 310.97 497.689C309.488 499.443 309.064 501.84 308.695 504.114L307.905 508.978C307.378 511.431 307.228 513.95 307.462 516.447C307.824 518.926 309.078 521.401 311.258 522.601C313.902 524.056 317.142 523.345 320.093 522.737C326.052 521.508 332.115 520.852 338.199 520.778C340.486 520.751 342.884 520.78 344.905 519.699C347.307 518.415 348.744 515.7 348.991 512.969C349.367 508.814 347.994 503.387 343.715 502.111Z" fill="#2F2E41"/>
<path d="M409.09 497.148C411.567 496.71 413.753 495.29 416.126 494.452C419.467 493.272 423.087 493.272 426.627 493.285C427.926 493.29 429.309 493.319 430.391 494.046C431.95 495.093 432.35 497.188 432.615 499.058L434.214 510.341C434.515 512.463 434.814 514.642 434.345 516.733C433.876 518.824 432.463 520.84 430.406 521.379C427.907 522.035 425.458 520.425 423.099 519.367C417.203 516.724 410.349 517.4 404.202 515.424C403.061 515.058 401.839 514.497 401.373 513.384C401.163 512.757 401.088 512.093 401.153 511.435C401.259 507.808 400.5 502.855 401.583 499.389C402.556 496.272 406.326 497.148 409.09 497.148Z" fill="#2F2E41"/>
<path d="M449.523 442.933C453.339 441.968 457.298 441.695 461.211 442.128C464.335 442.475 467.555 443.352 469.836 445.533C472.613 448.188 473.505 452.294 473.579 456.153C473.705 463.828 471.179 471.312 466.43 477.342C465.273 478.861 463.895 480.199 462.342 481.311C460.67 482.366 458.887 483.233 457.024 483.896L415.742 500.319C404.882 504.64 393.984 508.973 382.656 511.822C382.345 511.972 382.008 512.059 381.664 512.076C381.32 512.093 380.975 512.041 380.652 511.923C380.328 511.805 380.031 511.622 379.779 511.387C379.528 511.151 379.326 510.868 379.186 510.553C375.566 505.337 372.532 499.739 370.138 493.859C370.03 493.671 369.964 493.462 369.943 493.246C369.923 493.031 369.95 492.813 370.021 492.608C370.173 492.381 370.383 492.2 370.631 492.085L399.83 475.163C401.973 474.035 403.969 472.648 405.773 471.033C407.036 469.797 408.069 468.346 408.824 466.748C409.429 465.473 409.486 462.464 410.259 461.522C411.016 460.599 413.605 460.525 414.801 460.162C416.488 459.641 418.14 459.011 419.746 458.277C426.277 455.329 432.094 451.047 438.355 447.596C441.864 445.572 445.617 444.005 449.523 442.933Z" fill="#2F2E41"/>
<path opacity="0.1" d="M432.97 455.57C427.954 459.371 421.458 462.864 416.486 466.764C414.789 468.096 386.503 484.136 386.103 486.267C390.741 487.055 420.289 466.206 424.516 464.125C428.744 462.045 432.491 459.111 436.205 456.199C437.151 455.456 441.162 453.225 438.445 452.396C436.914 451.929 434.1 454.811 432.97 455.57Z" fill="black"/>
<path d="M382.726 339.05C398.42 339.05 411.143 326.328 411.143 310.634C411.143 294.939 398.42 282.217 382.726 282.217C367.032 282.217 354.309 294.939 354.309 310.634C354.309 326.328 367.032 339.05 382.726 339.05Z" fill="#FFB8B8"/>
<path d="M394.691 334.564C394.691 334.564 390.204 345.781 398.43 350.268C406.656 354.755 373.004 390.65 373.004 390.65L358.048 347.276C358.048 347.276 370.761 342.79 368.518 330.825L394.691 334.564Z" fill="#FFB8B8"/>
<path d="M375.996 365.224L394.106 345.231L418.621 357.746L414.882 445.988L408.899 452.718C408.899 452.718 383.474 475.152 344.588 456.457C344.588 456.457 331.127 445.24 331.875 428.04C332.623 410.84 330.379 408.597 330.379 408.597L329.631 348.024L366.552 340.779L375.996 365.224Z" fill="#D85D2C"/>
<path d="M292.953 460.375L288.336 474.601C288.336 474.601 266.099 497.574 274.142 503.801C282.184 510.028 300.229 477.202 300.229 477.202L303.554 461.142L292.953 460.375Z" fill="#FFB8B8"/>
<path d="M335.614 350.268L328.884 348.024C328.884 348.024 318.414 351.015 316.919 361.485C315.423 371.954 304.206 425.049 304.206 425.049C304.206 425.049 299.719 427.292 302.71 431.031C305.701 434.77 287.754 468.422 287.754 468.422L301.962 475.152C301.962 475.152 330.379 445.24 330.379 442.248C330.379 439.257 329.631 436.266 329.631 433.275C329.631 430.284 330.379 430.284 329.631 428.04C329.132 426.085 328.881 424.075 328.884 422.058L334.118 410.093L335.614 350.268Z" fill="#D85D2C"/>
<path d="M414.231 285.532L390.736 273.119L358.291 278.196L351.578 308.102L368.288 307.454L372.956 296.467V307.272L380.667 306.973L385.142 289.482L387.939 308.102L415.35 307.538L414.231 285.532Z" fill="#2F2E41"/>
<path d="M247.679 477.912V521.045H115.929C115.93 509.606 120.474 498.635 128.563 490.546C136.652 482.457 147.623 477.912 159.063 477.912C171.417 474.06 185.7 472.834 201.195 473.238C215.814 473.612 231.511 475.444 247.679 477.912Z" fill="#FF6584"/>
<path d="M228.858 511.636H290.812C291.852 511.636 292.85 512.049 293.585 512.784C294.32 513.52 294.733 514.517 294.733 515.557C294.733 516.597 294.32 517.594 293.585 518.33C292.85 519.065 291.852 519.478 290.812 519.478H228.858V511.636Z" fill="#3F3D56"/>
<path d="M239.588 440.998L256.194 420.868C256.577 420.07 257.194 419.407 257.962 418.968C258.731 418.528 259.615 418.334 260.497 418.409C261.379 418.485 262.218 418.827 262.9 419.391C263.583 419.955 264.078 420.713 264.319 421.565L270.868 444.686L239.588 440.998Z" fill="#3F3D56"/>
<path d="M219.447 451.25L225.721 425.92C225.721 425.035 225.991 424.17 226.494 423.442C226.997 422.714 227.71 422.156 228.539 421.843C229.367 421.53 230.27 421.476 231.13 421.689C231.989 421.902 232.763 422.372 233.349 423.036L249.248 441.055L219.447 451.25Z" fill="#FF6584"/>
<path d="M115.929 521.047H128.476V547.711C128.476 549.358 128.152 550.99 127.521 552.512C126.891 554.035 125.966 555.418 124.801 556.583C123.636 557.748 122.253 558.673 120.73 559.303C119.208 559.934 117.576 560.258 115.929 560.258V521.047Z" fill="#FF6584"/>
<path d="M226.505 513.204H288.46C289.5 513.204 290.497 513.617 291.232 514.353C291.968 515.088 292.381 516.086 292.381 517.125C292.381 518.165 291.968 519.163 291.232 519.898C290.497 520.633 289.5 521.047 288.46 521.047H226.505V513.204Z" fill="#FF6584"/>
<path opacity="0.2" d="M247.679 477.912V520.806C241.314 521.482 234.878 520.707 228.856 518.539C222.833 516.371 217.38 512.867 212.907 508.289C208.433 503.711 205.055 498.179 203.027 492.108C200.998 486.037 200.372 479.585 201.195 473.238C215.814 473.612 231.511 475.444 247.679 477.912Z" fill="black"/>
<path d="M247.68 521.047C271.068 521.047 290.028 502.087 290.028 478.698C290.028 455.31 271.068 436.35 247.68 436.35C224.291 436.35 205.331 455.31 205.331 478.698C205.331 502.087 224.291 521.047 247.68 521.047Z" fill="#FF6584"/>
<path d="M288.46 492.814C291.058 492.814 293.165 487.899 293.165 481.835C293.165 475.771 291.058 470.856 288.46 470.856C285.861 470.856 283.754 475.771 283.754 481.835C283.754 487.899 285.861 492.814 288.46 492.814Z" fill="#3F3D56"/>
<path d="M277.088 473.209C277.738 473.209 278.265 471.98 278.265 470.464C278.265 468.948 277.738 467.719 277.088 467.719C276.439 467.719 275.912 468.948 275.912 470.464C275.912 471.98 276.439 473.209 277.088 473.209Z" fill="#3F3D56"/>
<path d="M285.715 467.719C286.364 467.719 286.891 466.49 286.891 464.974C286.891 463.458 286.364 462.229 285.715 462.229C285.065 462.229 284.538 463.458 284.538 464.974C284.538 466.49 285.065 467.719 285.715 467.719Z" fill="#3F3D56"/>
<path d="M244.127 435.878C244.127 435.878 241.773 431.784 241.773 429.286L244.127 435.878Z" fill="#3F3D56"/>
<path d="M245.162 433.23C245.162 433.23 246.445 428.685 248.231 426.939L245.162 433.23Z" fill="#3F3D56"/>
</g>
<defs>
<clipPath id="clip0_162_50">
<rect width="588" height="560.258" fill="white"/>
</clipPath>
</defs>
</svg>
