<svg width="32" height="32" viewBox="0 0 32 32" fill="none" xmlns="http://www.w3.org/2000/svg">
<path fill-rule="evenodd" clip-rule="evenodd" d="M31.805 22.7359C30.609 25.1247 28.8578 27.1935 26.6976 28.7699C24.5373 30.3463 22.0306 31.3846 19.3864 31.798C16.7422 32.2115 14.0373 31.9882 11.4972 31.1467C8.95707 30.3053 6.65545 28.8701 4.78428 26.9609C2.91311 25.0517 1.52664 22.7238 0.74049 20.1714C-0.0456569 17.619 -0.208683 14.916 0.26501 12.2879C0.738703 9.65988 1.83538 7.18291 3.46358 5.06363C5.09178 2.94434 7.20429 1.24418 9.62492 0.104942C10.3924 -0.25184 11.1702 0.341929 10.7917 1.26904C9.20438 4.03794 8.56558 7.24783 8.97227 10.4117C9.37896 13.5756 10.8089 16.5208 13.0452 18.8005C15.2816 21.0802 18.2022 22.5699 21.3639 23.0438C24.5257 23.5176 27.7561 22.9496 30.565 21.4259L30.693 21.3556C30.8612 21.2666 31.0537 21.2338 31.242 21.262C31.4303 21.2902 31.6046 21.3779 31.7393 21.5123C31.8739 21.6466 31.9619 21.8205 31.9901 22.0084C32.0184 22.1963 31.9855 22.3883 31.8963 22.5562L31.805 22.7359ZM24.1332 19.4467H24.0131C23.9884 18.3646 23.5454 17.3339 22.7768 16.57C22.0082 15.8061 20.9735 15.3682 19.8888 15.3476V15.2122C20.4261 15.2137 20.9581 15.1054 21.4519 14.894C21.9458 14.6826 22.391 14.3726 22.7601 13.983C23.1493 13.6136 23.4591 13.1693 23.6709 12.6768C23.8827 12.1844 23.992 11.6542 23.9922 11.1183H24.1253C24.1245 11.6543 24.2333 12.1849 24.4451 12.6775C24.657 13.1701 24.9674 13.6143 25.3574 13.983C25.727 14.3721 26.1723 14.6818 26.666 14.8931C27.1597 15.1045 27.6915 15.2131 28.2288 15.2122V15.345C27.1491 15.3741 26.1219 15.8161 25.3596 16.5795C24.5973 17.3429 24.1582 18.3694 24.1332 19.4467ZM26.767 7.3135H26.6965C26.6978 7.03034 26.6408 6.74993 26.529 6.48966C26.4172 6.22939 26.253 5.9948 26.0466 5.80044C25.8523 5.59515 25.618 5.43171 25.3581 5.32018C25.0982 5.20866 24.8181 5.15142 24.5352 5.15198V5.08166C24.8185 5.08156 25.0988 5.0235 25.3588 4.91107C25.6187 4.79864 25.8528 4.63423 26.0466 4.428C26.2519 4.23336 26.4154 3.99909 26.5272 3.73942C26.6389 3.47975 26.6965 3.20012 26.6965 2.91753H26.767C26.7657 3.19937 26.8216 3.47855 26.9316 3.73817C27.0415 3.9978 27.2031 4.23247 27.4065 4.428C27.6019 4.63319 27.8372 4.79651 28.0979 4.908C28.3587 5.01949 28.6395 5.07681 28.9231 5.07645V5.14677C28.6391 5.14709 28.3581 5.20522 28.0973 5.31761C27.8365 5.43001 27.6015 5.5943 27.4065 5.80044C27.2001 5.9948 27.0359 6.22939 26.9241 6.48966C26.8123 6.74993 26.7553 7.03034 26.7566 7.3135H26.767ZM15.9341 9.3969H15.8271C15.8289 8.96705 15.7423 8.5414 15.5726 8.14631C15.4029 7.75121 15.1536 7.39507 14.8404 7.09996C14.5429 6.78708 14.1841 6.53867 13.7862 6.3702C13.3883 6.20173 12.9598 6.11682 12.5276 6.12076V6.01398C12.9584 6.01566 13.385 5.92917 13.781 5.75985C14.177 5.59054 14.534 5.34199 14.8299 5.02958C15.1428 4.73417 15.3918 4.37798 15.5615 3.98295C15.7312 3.58792 15.818 3.16241 15.8166 2.73263H15.9237C15.9218 3.16224 16.0082 3.58768 16.1774 3.98273C16.3467 4.37777 16.5952 4.73404 16.9078 5.02958C17.2042 5.34206 17.5616 5.59063 17.958 5.75994C18.3545 5.92925 18.7815 6.01571 19.2127 6.01398V6.12076C18.7815 6.11903 18.3545 6.20549 17.958 6.3748C17.5616 6.54411 17.2042 6.79268 16.9078 7.10516C16.5952 7.4007 16.3467 7.75697 16.1774 8.15201C16.0082 8.54706 15.9218 8.9725 15.9237 9.40211L15.9341 9.3969Z" fill="#FBFBFE"/>
</svg>
