<svg width="32" height="32" viewBox="0 0 32 32" fill="none" xmlns="http://www.w3.org/2000/svg">
<g clip-path="url(#clip0_185_2)">
<path d="M7.81252 3.4401C7.74257 3.32372 7.69647 3.19458 7.67691 3.06021C7.65736 2.92584 7.66474 2.78892 7.69862 2.65743C7.73251 2.52594 7.79222 2.40251 7.87428 2.29433C7.95634 2.18614 8.05911 2.09537 8.1766 2.02729C8.29409 1.95922 8.42395 1.91521 8.55861 1.89782C8.69328 1.88043 8.83006 1.89001 8.96099 1.926C9.09192 1.962 9.21437 2.02369 9.32122 2.10748C9.42807 2.19127 9.51718 2.29549 9.58336 2.41406L10.9011 4.68749C11.0392 4.92267 11.0783 5.20308 11.0096 5.46705C10.941 5.73101 10.7704 5.95691 10.5352 6.09505C10.3 6.23318 10.0196 6.27223 9.75563 6.20362C9.49166 6.135 9.26576 5.96433 9.12763 5.72916L7.81252 3.4401ZM16.0026 6.82551C18.125 6.82716 20.1812 7.5646 21.8209 8.91221C23.4605 10.2598 24.5822 12.1342 24.9949 14.2161C25.4076 16.298 25.0857 18.4586 24.084 20.3298C23.0824 22.2009 21.463 23.667 19.5017 24.4781C17.5404 25.2892 15.3586 25.3952 13.3279 24.7781C11.2972 24.1609 9.54326 22.8588 8.36492 21.0936C7.18658 19.3284 6.65672 17.2092 6.86559 15.0971C7.07447 12.985 8.00916 11.0107 9.51044 9.51041C10.3618 8.65699 11.3733 7.98023 12.487 7.51902C13.6007 7.05781 14.7946 6.82124 16 6.82291L16.0026 6.82551ZM15.1849 1.04166C15.1779 0.902396 15.1993 0.76316 15.2477 0.632412C15.2962 0.501664 15.3707 0.382134 15.4668 0.281086C15.5629 0.180037 15.6785 0.0995793 15.8067 0.0446014C15.9348 -0.0103765 16.0728 -0.0387268 16.2123 -0.0387268C16.3517 -0.0387268 16.4897 -0.0103765 16.6178 0.0446014C16.746 0.0995793 16.8616 0.180037 16.9577 0.281086C17.0538 0.382134 17.1283 0.501664 17.1768 0.632412C17.2252 0.76316 17.2466 0.902396 17.2396 1.04166V3.66145C17.2466 3.80072 17.2252 3.93995 17.1768 4.0707C17.1283 4.20145 17.0538 4.32098 16.9577 4.42203C16.8616 4.52307 16.746 4.60353 16.6178 4.65851C16.4897 4.71349 16.3517 4.74184 16.2123 4.74184C16.0728 4.74184 15.9348 4.71349 15.8067 4.65851C15.6785 4.60353 15.5629 4.52307 15.4668 4.42203C15.3707 4.32098 15.2962 4.20145 15.2477 4.0707C15.1993 3.93995 15.1779 3.80072 15.1849 3.66145V1.04166ZM22.7839 2.6302C22.8462 2.5057 22.9333 2.39523 23.0397 2.30554C23.1462 2.21585 23.2699 2.14883 23.4032 2.10858C23.5365 2.06833 23.6765 2.05569 23.8149 2.07145C23.9532 2.0872 24.0869 2.13101 24.2077 2.2002C24.3285 2.26939 24.4339 2.3625 24.5175 2.47384C24.6011 2.58517 24.6611 2.71239 24.6938 2.84772C24.7265 2.98304 24.7313 3.12361 24.7079 3.26084C24.6844 3.39807 24.6332 3.52907 24.5573 3.64583L23.2396 5.92708C23.1744 6.04702 23.0859 6.15271 22.9793 6.23793C22.8726 6.32315 22.75 6.38617 22.6186 6.42328C22.4873 6.4604 22.3498 6.47085 22.2143 6.45404C22.0789 6.43723 21.9481 6.39348 21.8298 6.32538C21.7115 6.25728 21.608 6.1662 21.5254 6.0575C21.4429 5.94879 21.3829 5.82467 21.349 5.69243C21.3151 5.56019 21.308 5.42251 21.3281 5.28749C21.3483 5.15248 21.3952 5.02285 21.4662 4.90624L22.7839 2.6276V2.6302ZM28.5599 7.81249C28.7951 7.67643 29.0747 7.63937 29.3372 7.70945C29.5997 7.77953 29.8236 7.95102 29.9597 8.18619C30.0957 8.42136 30.1328 8.70095 30.0627 8.96346C29.9926 9.22596 29.8211 9.44987 29.586 9.58593L27.3073 10.9036C27.1909 10.972 27.0621 11.0168 26.9283 11.0355C26.7946 11.0541 26.6585 11.0462 26.5278 11.0122C26.3971 10.9782 26.2743 10.9188 26.1666 10.8374C26.0588 10.756 25.9682 10.6542 25.8998 10.5378C25.8314 10.4213 25.7866 10.2925 25.7679 10.1588C25.7493 10.025 25.7572 9.8889 25.7912 9.7582C25.8252 9.6275 25.8846 9.50477 25.966 9.39701C26.0474 9.28926 26.1492 9.1986 26.2657 9.1302L28.5599 7.81249ZM30.9714 15.1875C31.1106 15.1805 31.2499 15.2019 31.3806 15.2503C31.5114 15.2988 31.6309 15.3733 31.732 15.4694C31.833 15.5655 31.9135 15.6811 31.9684 15.8093C32.0234 15.9374 32.0518 16.0754 32.0518 16.2148C32.0518 16.3543 32.0234 16.4923 31.9684 16.6204C31.9135 16.7486 31.833 16.8642 31.732 16.9603C31.6309 17.0564 31.5114 17.1309 31.3806 17.1794C31.2499 17.2278 31.1106 17.2492 30.9714 17.2422H28.3386C28.1993 17.2492 28.0601 17.2278 27.9293 17.1794C27.7986 17.1309 27.679 17.0564 27.578 16.9603C27.4769 16.8642 27.3965 16.7486 27.3415 16.6204C27.2865 16.4923 27.2582 16.3543 27.2582 16.2148C27.2582 16.0754 27.2865 15.9374 27.3415 15.8093C27.3965 15.6811 27.4769 15.5655 27.578 15.4694C27.679 15.3733 27.7986 15.2988 27.9293 15.2503C28.0601 15.2019 28.1993 15.1805 28.3386 15.1875H30.9714ZM29.3698 22.7865C29.4925 22.85 29.601 22.9377 29.6888 23.0443C29.7767 23.1509 29.842 23.2741 29.881 23.4066C29.9199 23.5392 29.9316 23.6782 29.9154 23.8154C29.8992 23.9525 29.8554 24.085 29.7866 24.2048C29.7178 24.3246 29.6255 24.4292 29.5152 24.5124C29.405 24.5955 29.279 24.6555 29.1449 24.6887C29.0108 24.7218 28.8714 24.7275 28.7351 24.7054C28.5987 24.6833 28.4683 24.6338 28.3516 24.5599L26.0703 23.2422C25.947 23.1793 25.8377 23.092 25.7491 22.9857C25.6605 22.8794 25.5943 22.7562 25.5547 22.6235C25.5151 22.4909 25.5027 22.3516 25.5185 22.2141C25.5342 22.0765 25.5777 21.9436 25.6463 21.8234C25.7149 21.7031 25.8071 21.5981 25.9175 21.5145C26.0279 21.4309 26.154 21.3706 26.2884 21.3372C26.4227 21.3038 26.5624 21.298 26.6991 21.3202C26.8357 21.3424 26.9665 21.392 27.0834 21.4661L29.362 22.7838L29.3698 22.7865ZM24.1901 28.5599C24.3262 28.7951 24.3633 29.0747 24.2932 29.3372C24.2231 29.5997 24.0516 29.8236 23.8164 29.9596C23.5813 30.0957 23.3017 30.1328 23.0392 30.0627C22.7767 29.9926 22.5528 29.8211 22.4167 29.5859L21.0938 27.3073C21.0254 27.1908 20.9806 27.0621 20.962 26.9283C20.9433 26.7946 20.9512 26.6584 20.9852 26.5277C21.0192 26.397 21.0786 26.2743 21.16 26.1665C21.2414 26.0588 21.3432 25.9681 21.4597 25.8997C21.6948 25.7616 21.9752 25.7225 22.2392 25.7912C22.3699 25.8251 22.4926 25.8845 22.6004 25.9659C22.7082 26.0473 22.7988 26.1492 22.8672 26.2656L24.1849 28.5469L24.1901 28.5599ZM16.8151 30.9713C16.8221 31.1106 16.8008 31.2498 16.7523 31.3806C16.7038 31.5113 16.6293 31.6309 16.5332 31.7319C16.4371 31.833 16.3215 31.9134 16.1934 31.9684C16.0652 32.0234 15.9272 32.0517 15.7878 32.0517C15.6483 32.0517 15.5104 32.0234 15.3822 31.9684C15.2541 31.9134 15.1384 31.833 15.0424 31.7319C14.9463 31.6309 14.8717 31.5113 14.8233 31.3806C14.7748 31.2498 14.7534 31.1106 14.7604 30.9713V28.3385C14.7534 28.1993 14.7748 28.06 14.8233 27.9293C14.8717 27.7985 14.9463 27.679 15.0424 27.578C15.1384 27.4769 15.2541 27.3965 15.3822 27.3415C15.5104 27.2865 15.6483 27.2582 15.7878 27.2582C15.9272 27.2582 16.0652 27.2865 16.1934 27.3415C16.3215 27.3965 16.4371 27.4769 16.5332 27.578C16.6293 27.679 16.7038 27.7985 16.7523 27.9293C16.8008 28.06 16.8221 28.1993 16.8151 28.3385V30.9713ZM9.21617 29.3698C9.07507 29.5926 8.85337 29.7524 8.59732 29.8158C8.34126 29.8791 8.07064 29.8412 7.84188 29.7099C7.61313 29.5785 7.44393 29.3639 7.36956 29.1109C7.29519 28.8578 7.3214 28.5858 7.44273 28.3516L8.76044 26.0703C8.82172 25.9443 8.90822 25.8322 9.01458 25.741C9.12094 25.6498 9.2449 25.5814 9.37877 25.5401C9.51265 25.4987 9.65359 25.4853 9.79286 25.5006C9.93213 25.516 10.0668 25.5597 10.1884 25.6292C10.3101 25.6987 10.4162 25.7925 10.5002 25.9047C10.5841 26.0168 10.6441 26.145 10.6765 26.2814C10.7089 26.4177 10.713 26.5592 10.6884 26.6971C10.6639 26.8351 10.6113 26.9665 10.5339 27.0833L9.21617 29.362V29.3698ZM3.44013 24.1901C3.32368 24.2575 3.19511 24.3012 3.06174 24.3189C2.92838 24.3366 2.79284 24.3278 2.66286 24.2931C2.53288 24.2584 2.41101 24.1985 2.30421 24.1167C2.19741 24.0349 2.10776 23.9328 2.04039 23.8164C1.97302 23.7 1.92924 23.5714 1.91156 23.438C1.89388 23.3047 1.90264 23.1691 1.93734 23.0391C1.97204 22.9092 2.032 22.7873 2.1138 22.6805C2.1956 22.5737 2.29764 22.484 2.41409 22.4167L4.68752 21.0937C4.80431 21.0253 4.93343 20.9806 5.0675 20.9621C5.20157 20.9436 5.33797 20.9517 5.46892 20.9859C5.59986 21.0202 5.72279 21.0798 5.83067 21.1616C5.93855 21.2433 6.02928 21.3454 6.09768 21.4622C6.16608 21.579 6.2108 21.7081 6.2293 21.8422C6.2478 21.9763 6.23971 22.1127 6.20549 22.2436C6.17127 22.3746 6.1116 22.4975 6.02987 22.6054C5.94815 22.7133 5.84598 22.804 5.72919 22.8724L3.44794 24.1901H3.44013ZM1.04169 16.8151C0.902426 16.8221 0.76319 16.8007 0.632442 16.7523C0.501694 16.7038 0.382165 16.6293 0.281116 16.5332C0.180068 16.4371 0.0996099 16.3215 0.0446319 16.1933C-0.010346 16.0652 -0.0386963 15.9272 -0.0386963 15.7878C-0.0386963 15.6483 -0.010346 15.5103 0.0446319 15.3822C0.0996099 15.254 0.180068 15.1384 0.281116 15.0423C0.382165 14.9462 0.501694 14.8717 0.632442 14.8232C0.76319 14.7748 0.902426 14.7534 1.04169 14.7604H3.66148C3.80075 14.7534 3.93998 14.7748 4.07073 14.8232C4.20148 14.8717 4.32101 14.9462 4.42206 15.0423C4.5231 15.1384 4.60356 15.254 4.65854 15.3822C4.71352 15.5103 4.74187 15.6483 4.74187 15.7878C4.74187 15.9272 4.71352 16.0652 4.65854 16.1933C4.60356 16.3215 4.5231 16.4371 4.42206 16.5332C4.32101 16.6293 4.20148 16.7038 4.07073 16.7523C3.93998 16.8007 3.80075 16.8221 3.66148 16.8151H1.04169ZM2.63023 9.21614C2.50574 9.15382 2.39526 9.06675 2.30557 8.96027C2.21588 8.85379 2.14886 8.73012 2.10861 8.59685C2.06836 8.46357 2.05572 8.32348 2.07148 8.18515C2.08723 8.04682 2.13104 7.91316 2.20023 7.79235C2.26942 7.67153 2.36253 7.56611 2.47387 7.48252C2.5852 7.39893 2.71242 7.33893 2.84775 7.3062C2.98307 7.27347 3.12364 7.2687 3.26087 7.29217C3.39811 7.31564 3.5291 7.36686 3.64586 7.4427L5.92711 8.76041C6.04705 8.82559 6.15274 8.91411 6.23796 9.02076C6.32318 9.1274 6.3862 9.25002 6.42331 9.38139C6.46043 9.51275 6.47089 9.65022 6.45407 9.78569C6.43726 9.92116 6.39351 10.0519 6.32541 10.1702C6.25731 10.2885 6.16623 10.392 6.05753 10.4746C5.94882 10.5572 5.8247 10.6172 5.69246 10.651C5.56022 10.6849 5.42254 10.692 5.28753 10.6719C5.15251 10.6518 5.02288 10.6048 4.90627 10.5338L2.63023 9.21614Z" fill="#010104"/>
</g>
<defs>
<clipPath id="clip0_185_2">
<rect width="32" height="32" fill="white"/>
</clipPath>
</defs>
</svg>
